<?xml version="1.0" standalone="no"?>
<!DOCTYPE svg PUBLIC "-//W3C//DTD SVG 20010904//EN"
 "http://www.w3.org/TR/2001/REC-SVG-20010904/DTD/svg10.dtd">
<svg version="1.0" xmlns="http://www.w3.org/2000/svg"
 width="700.000000pt" height="700.000000pt" viewBox="0 0 700.000000 700.000000"
 preserveAspectRatio="xMidYMid meet">
<metadata>
Created by potrace 1.11, written by Peter Selinger 2001-2013
</metadata>
<g transform="translate(0.000000,700.000000) scale(0.100000,-0.100000)"
fill="#000000" stroke="none">
<path d="M3335 6954 c-1063 -65 -1980 -554 -2612 -1395 -365 -485 -600 -1094
-664 -1719 -17 -161 -17 -519 0 -680 99 -959 570 -1804 1341 -2407 422 -329
984 -573 1530 -662 217 -35 329 -44 570 -44 241 0 353 9 570 44 1443 236 2591
1380 2839 2829 46 270 60 655 32 920 -158 1539 -1303 2782 -2816 3060 -222 41
-592 66 -790 54z m580 -613 c341 -52 607 -138 910 -295 586 -302 1058 -812
1320 -1426 301 -703 301 -1537 0 -2240 -90 -210 -243 -473 -370 -633 l-46 -58
-269 273 -269 273 -1 138 c0 160 13 150 -118 90 l-76 -34 -390 390 -391 391
603 0 602 0 0 343 c0 469 -20 657 -95 912 -108 363 -317 663 -605 868 -316
226 -757 341 -1245 324 -491 -17 -850 -134 -1168 -380 l-78 -61 -260 260
c-142 142 -259 262 -259 266 0 3 39 35 88 71 431 316 922 500 1472 551 118 11
519 -3 645 -23z m-2335 -1296 l284 -284 -47 -98 c-112 -235 -183 -499 -219
-818 -16 -146 -16 -590 0 -730 60 -503 224 -880 511 -1178 324 -336 712 -514
1256 -579 141 -17 670 -17 820 0 281 32 529 87 736 163 l112 41 143 -143 143
-143 -62 -48 c-319 -250 -741 -446 -1142 -533 -227 -49 -333 -59 -615 -59
-282 0 -388 10 -615 59 -1056 228 -1908 1054 -2170 2105 -146 587 -105 1207
116 1762 52 130 161 346 235 463 60 96 213 305 223 305 3 0 134 -128 291 -285z
m2150 -209 c235 -43 416 -179 523 -392 53 -105 97 -294 97 -415 l0 -59 -443 0
-442 0 -274 274 -275 275 27 38 c69 100 198 199 316 244 127 48 321 62 471 35z
m149 -2108 c295 -298 475 -486 467 -490 -6 -3 -68 -15 -136 -25 -157 -22 -610
-26 -705 -5 -462 101 -722 419 -769 940 l-6 62 335 0 335 0 479 -482z"/>
</g>
</svg>
